<svg width="63.11250305175781px" height="63.199999999999996px" xmlns="http://www.w3.org/2000/svg" viewBox="218.4437484741211 43.400000000000006 63.11250305175781 63.199999999999996" style="background: none;" preserveAspectRatio="xMidYMid"><defs><filter id="editing-neon" x="-100%" y="-100%" width="300%" height="300%"><feFlood flood-color="#632200" result="flood"></feFlood><feComposite operator="in" in="flood" in2="SourceAlpha" result="color"></feComposite><feFlood flood-color="#632200" result="flood2"></feFlood><feComposite operator="in" in="flood2" in2="SourceAlpha" result="color2"></feComposite><feMorphology operator="dilate" radius="2" in="color" result="dilate"></feMorphology><feGaussianBlur stdDeviation="6" in="color" result="blur1"></feGaussianBlur><feGaussianBlur stdDeviation="2.5" in="color" result="blur2"></feGaussianBlur><feGaussianBlur stdDeviation="1" in="SourceAlpha" result="blur3"></feGaussianBlur><feGaussianBlur stdDeviation="6" in="dilate" result="blur4"></feGaussianBlur><feConvolveMatrix in="color2" result="conv" order="3,3" divisor="1" kernelMatrix="1 1 1  1 1 1  1 1 1"></feConvolveMatrix><feMerge><feMergeNode in="blur1"></feMergeNode><feMergeNode in="blur2"></feMergeNode><feMergeNode in="blur4"></feMergeNode><feMergeNode in="blur3"></feMergeNode><feMergeNode in="blur3"></feMergeNode><feMergeNode in="blur3"></feMergeNode><feMergeNode in="blur3"></feMergeNode><feMergeNode in="conv"></feMergeNode><feMergeNode in="SourceGraphic"></feMergeNode></feMerge></filter></defs><g filter="url(#editing-neon)"><g transform="translate(234.12497714161873, 84.44999885559082)"><path d="M13.72-11.23L13.72-11.23L13.72-11.23Q13.72-10.10 12.77-9.40L12.77-9.40L12.77-9.40Q11.83-8.69 10.29-8.69L10.29-8.69L10.29-8.69Q9.64-8.69 9.26-8.88L9.26-8.88L9.26-8.88Q9.56-9.58 9.65-10.46L9.65-10.46L9.65-10.46Q9.75-11.34 9.75-11.58L9.75-11.58L9.75-11.58Q9.75-12.72 8.96-12.72L8.96-12.72L8.96-12.72Q8.42-12.72 7.82-12.04L7.82-12.04L7.82-12.04Q7.21-11.37 6.70-10.31L6.70-10.31L6.70-10.31Q5.56-7.88 5.56-5.43L5.56-5.43L5.56-5.43Q5.56-4.08 6.08-3.47L6.08-3.47L6.08-3.47Q6.59-2.86 7.72-2.86L7.72-2.86L7.72-2.86Q9.29-2.86 10.53-4.16L10.53-4.16L10.53-4.16Q10.88-4.56 11.07-5.02L11.07-5.02L11.07-5.02Q12.10-4.48 12.10-3.00L12.10-3.00L12.10-3.00Q12.10-1.48 10.42-0.49L10.42-0.49L10.42-0.49Q8.69 0.54 5.94 0.54L5.94 0.54L5.94 0.54Q0.46 0.54 0.46-5.26L0.46-5.26L0.46-5.26Q0.46-9.50 2.86-11.93L2.86-11.93L2.86-11.93Q5.18-14.31 9.45-14.31L9.45-14.31L9.45-14.31Q13.72-14.31 13.72-11.23ZM25.38-8.69L30.83-9.18L30.83-9.18Q28.89-4.91 28.89 0.03L28.89 0.03L28.89 0.03Q28.16 0.54 27.09 0.54L27.09 0.54L27.09 0.54Q26.03 0.54 25.35 0.04L25.35 0.04L25.35 0.04Q24.68-0.46 24.54-0.97L24.54-0.97L24.54-0.97Q23.87-0.27 22.77 0.14L22.77 0.14L22.77 0.14Q21.68 0.54 20.52 0.54L20.52 0.54L20.52 0.54Q19.36 0.54 18.35 0.16L18.35 0.16L18.35 0.16Q17.33-0.22 16.55-1.05L16.55-1.05L16.55-1.05Q14.82-2.89 14.82-6.37L14.82-6.37L14.82-6.37Q14.82-11.77 17.71-15.01L17.71-15.01L17.71-15.01Q20.68-18.36 25.95-18.36L25.95-18.36L25.95-18.36Q29.59-18.36 30.89-16.47L30.89-16.47L30.89-16.47Q31.29-15.88 31.29-15.16L31.29-15.16L31.29-15.16Q31.29-14.45 30.98-13.84L30.98-13.84L30.98-13.84Q30.67-13.23 30.19-12.74L30.19-12.74L30.19-12.74Q29.02-11.66 27.59-11.66L27.59-11.66L27.59-11.66Q27.03-11.66 26.49-11.85L26.49-11.85L26.49-11.85Q26.59-12.66 26.59-13.61L26.59-13.61L26.59-13.61Q26.59-14.55 26.53-14.98L26.53-14.98L26.53-14.98Q26.46-15.42 26.30-15.77L26.30-15.77L26.30-15.77Q25.95-16.50 25.18-16.50L25.18-16.50L25.18-16.50Q24.41-16.50 23.56-15.67L23.56-15.67L23.56-15.67Q22.71-14.85 22.03-13.50L22.03-13.50L22.03-13.50Q20.55-10.48 20.55-6.83L20.55-6.83L20.55-6.83Q20.55-5.16 21.20-3.97L21.20-3.97L21.20-3.97Q21.90-2.67 23.14-2.67L23.14-2.67L23.14-2.67Q23.57-2.67 23.96-2.89L23.96-2.89L23.96-2.89Q24.35-3.10 24.52-3.27L24.52-3.27L25.38-8.69Z" fill="none" stroke="#feaa81" stroke-width="0.5"></path></g></g><style>text {
  font-size: 24px;
  font-family: Arial Black;
  dominant-baseline: central;
  text-anchor: middle;
}</style></svg>